# xmcd
#
# Track frame offsets:
#	150
#	17350
#	47475
#	72112
#	89787
#	105250
#	126975
#	145737
#	163737
#	183900
#	206662
#	224512
#	241800
#	258737
#	280700
#	296137
#	322425
#	339025
#
# Disc length: 4751 seconds
#
# Revision: 0
# Processed by: cddbd v1.5.2PL0 Copyright (c) Steve Scherf et al.
# Submitted via: EasyCDDAExtractor 10.0.3.1
#
DISCID=12128d12
DTITLE=Various Artist - Pop and Wave Vol. 7
DYEAR=1997
DGENRE=Pop
TTITLE0=Aha - Husting High And Love
TTITLE1=Frankies Goes To Hollywood - Two Tribes ( Hibakusha Mix )
TTITLE2=Simple Minds - Alive And Kicking
TTITLE3=Talk Talk - It´S My Life
TTITLE4=Fine Young Cannibals - Good Thing
TTITLE5=Propaganda - Duel
TTITLE6=Anne Clark - Sleper In Metropolis
TTITLE7=Freuer - Doot Doot
TTITLE8=Sparks - Beat The Clock
TTITLE9=Eurythmics - Here Comes The Rain Again
TTITLE10=T.X.T. - Girl´s Got A Brand New Toy
TTITLE11=Video Kids - Woodpeckers From Space
TTITLE12=Moti Special - Cold Days Hot Night
TTITLE13=Twins - Ballet Dancer
TTITLE14=Kim Wilde - Chequered Love
TTITLE15=Spandau Ballet - Trough The Barricades
TTITLE16=Two Of Us - Blue Night Shadow
TTITLE17=Cars - Drive
EXTD=
EXTT0=
EXTT1=
EXTT2=
EXTT3=
EXTT4=
EXTT5=
EXTT6=
EXTT7=
EXTT8=
EXTT9=
EXTT10=
EXTT11=
EXTT12=
EXTT13=
EXTT14=
EXTT15=
EXTT16=
EXTT17=
PLAYORDER=
